<svg width="67" height="39" viewBox="0 0 67 39" fill="none" xmlns="http://www.w3.org/2000/svg">
<path d="M14.5502 38.53C10.9816 38.53 8.24322 37.3817 6.33522 35.085C4.42722 32.7883 3.40256 29.732 3.26122 25.916L3.20822 24.167L3.26122 22.471C3.36722 18.761 4.37422 15.74 6.28222 13.408C8.22556 11.076 10.9816 9.91 14.5502 9.91C17.9776 9.91 20.6982 11.076 22.7122 13.408V1.642C22.7122 1.25333 22.8359 0.952999 23.0832 0.741C23.3306 0.493665 23.6309 0.369998 23.9842 0.369998H28.4892C28.8779 0.369998 29.1782 0.493665 29.3902 0.741C29.6376 0.952999 29.7612 1.25333 29.7612 1.642V36.728C29.7612 37.0813 29.6376 37.3817 29.3902 37.629C29.1782 37.8763 28.8779 38 28.4892 38H24.3022C23.9489 38 23.6486 37.8763 23.4012 37.629C23.1539 37.3817 23.0302 37.0813 23.0302 36.728V34.767C21.0162 37.2757 18.1896 38.53 14.5502 38.53ZM16.5112 32.859C18.5606 32.859 20.0799 32.2053 21.0692 30.898C22.0586 29.5907 22.6062 27.983 22.7122 26.075C22.7476 25.651 22.7652 24.962 22.7652 24.008C22.7652 23.0893 22.7476 22.418 22.7122 21.994C22.6416 20.2273 22.0762 18.7257 21.0162 17.489C19.9916 16.217 18.4899 15.581 16.5112 15.581C12.6952 15.581 10.6636 17.9307 10.4162 22.63L10.3632 24.22L10.4162 25.81C10.6636 30.5093 12.6952 32.859 16.5112 32.859ZM41.4361 38.53C38.7861 38.53 36.5601 38.1413 34.7581 37.364C32.9561 36.5513 31.6135 35.615 30.7301 34.555C29.8821 33.4597 29.4581 32.5233 29.4581 31.746C29.4581 31.3927 29.5818 31.11 29.8291 30.898C30.0765 30.686 30.3591 30.58 30.6771 30.58H34.8641C35.1821 30.58 35.4471 30.7037 35.6591 30.951C35.8005 31.057 36.1715 31.375 36.7721 31.905C37.3728 32.4703 38.0795 32.912 38.8921 33.23C39.7048 33.548 40.6058 33.707 41.5951 33.707C43.0085 33.707 44.1745 33.4243 45.0931 32.859C46.0118 32.2937 46.4711 31.5163 46.4711 30.527C46.4711 29.785 46.2591 29.1843 45.8351 28.725C45.4465 28.2657 44.7221 27.8593 43.6621 27.506C42.6021 27.1173 41.0298 26.711 38.9451 26.287C35.9418 25.651 33.7158 24.6793 32.2671 23.372C30.8538 22.0647 30.1471 20.3333 30.1471 18.178C30.1471 16.7647 30.5711 15.4397 31.4191 14.203C32.2671 12.931 33.5215 11.9063 35.1821 11.129C36.8781 10.3163 38.8921 9.91 41.2241 9.91C43.5915 9.91 45.6408 10.2987 47.3721 11.076C49.1035 11.818 50.4108 12.719 51.2941 13.779C52.2128 14.8037 52.6721 15.7223 52.6721 16.535C52.6721 16.853 52.5485 17.1357 52.3011 17.383C52.0891 17.595 51.8241 17.701 51.5061 17.701H47.5841C47.3015 17.701 47.0011 17.5773 46.6831 17.33C46.4358 17.1533 46.0471 16.8177 45.5171 16.323C44.9871 15.8283 44.3688 15.4397 43.6621 15.157C42.9555 14.8743 42.1251 14.733 41.1711 14.733C39.8638 14.733 38.8391 15.0157 38.0971 15.581C37.3905 16.1463 37.0371 16.8883 37.0371 17.807C37.0371 18.4783 37.2138 19.026 37.5671 19.45C37.9205 19.874 38.6095 20.2803 39.6341 20.669C40.6588 21.0577 42.1958 21.4463 44.2451 21.835C47.6371 22.5063 50.0575 23.5487 51.5061 24.962C52.9901 26.3753 53.7321 28.1067 53.7321 30.156C53.7321 32.6293 52.6545 34.6433 50.4991 36.198C48.3438 37.7527 45.3228 38.53 41.4361 38.53ZM56.4471 38C56.0938 38 55.7935 37.8763 55.5461 37.629C55.2988 37.3817 55.1751 37.0813 55.1751 36.728V31.481C55.1751 31.1277 55.2988 30.8273 55.5461 30.58C55.7935 30.2973 56.0938 30.156 56.4471 30.156H61.7471C62.1005 30.156 62.4008 30.2973 62.6481 30.58C62.8955 30.8273 63.0191 31.1277 63.0191 31.481V36.728C63.0191 37.0813 62.8955 37.3817 62.6481 37.629C62.4008 37.8763 62.1005 38 61.7471 38H56.4471Z" fill="url(#paint0_linear)"/>
<rect x="1" y="20.974" width="16.4571" height="6.11111" rx="3.05555" fill="white"/>
<defs>
<linearGradient id="paint0_linear" x1="-24.02" y1="-6.97968" x2="13.8864" y2="47.6321" gradientUnits="userSpaceOnUse">
<stop stop-color="white"/>
<stop offset="1" stop-color="white"/>
</linearGradient>
</defs>
</svg>
